<mxfile host="Electron" modified="2024-12-02T07:30:43.720Z" agent="Mozilla/5.0 (Windows NT 10.0; Win64; x64) AppleWebKit/537.36 (KHTML, like Gecko) draw.io/24.6.4 Chrome/124.0.6367.207 Electron/30.0.6 Safari/537.36" etag="P9M3h1kbnnS2kKJoajws" version="24.6.4" type="device">
  <diagram name="Страница — 1" id="BzyWAdhGi7d21yVxBeBD">
    <mxGraphModel dx="1235" dy="740" grid="1" gridSize="10" guides="1" tooltips="1" connect="1" arrows="1" fold="1" page="1" pageScale="1" pageWidth="3300" pageHeight="2339" math="0" shadow="0">
      <root>
        <mxCell id="0" />
        <mxCell id="1" parent="0" />
        <mxCell id="PSzE1qa0EJoJ_1Spib9P-2" value="&lt;font style=&quot;font-size: 20px;&quot;&gt;Гость&lt;/font&gt;" style="shape=umlActor;verticalLabelPosition=bottom;verticalAlign=top;html=1;outlineConnect=0;" parent="1" vertex="1">
          <mxGeometry x="680" y="430" width="80" height="150" as="geometry" />
        </mxCell>
        <mxCell id="PSzE1qa0EJoJ_1Spib9P-4" value="" style="endArrow=none;html=1;rounded=0;" parent="1" edge="1">
          <mxGeometry width="50" height="50" relative="1" as="geometry">
            <mxPoint x="770" y="450" as="sourcePoint" />
            <mxPoint x="1100" y="340" as="targetPoint" />
          </mxGeometry>
        </mxCell>
        <mxCell id="PSzE1qa0EJoJ_1Spib9P-5" value="" style="endArrow=classic;html=1;rounded=0;" parent="1" edge="1">
          <mxGeometry width="50" height="50" relative="1" as="geometry">
            <mxPoint x="820" y="400" as="sourcePoint" />
            <mxPoint x="1020" y="340" as="targetPoint" />
          </mxGeometry>
        </mxCell>
        <mxCell id="PSzE1qa0EJoJ_1Spib9P-6" value="&lt;font style=&quot;font-size: 20px;&quot;&gt;1: Заполнение формы&lt;br&gt;сообщения&lt;/font&gt;" style="text;html=1;align=center;verticalAlign=middle;resizable=0;points=[];autosize=1;strokeColor=none;fillColor=none;" parent="1" vertex="1">
          <mxGeometry x="760" y="305" width="230" height="60" as="geometry" />
        </mxCell>
        <mxCell id="PSzE1qa0EJoJ_1Spib9P-7" value="&lt;font style=&quot;font-size: 20px;&quot;&gt;2: Отправка сообщения&lt;/font&gt;" style="text;html=1;align=center;verticalAlign=middle;resizable=0;points=[];autosize=1;strokeColor=none;fillColor=none;" parent="1" vertex="1">
          <mxGeometry x="1340" y="290" width="240" height="40" as="geometry" />
        </mxCell>
        <mxCell id="PSzE1qa0EJoJ_1Spib9P-8" value="&lt;font style=&quot;font-size: 18px;&quot;&gt;Сообщение&lt;/font&gt;" style="rounded=0;whiteSpace=wrap;html=1;" parent="1" vertex="1">
          <mxGeometry x="1100" y="290" width="160" height="90" as="geometry" />
        </mxCell>
        <mxCell id="PSzE1qa0EJoJ_1Spib9P-9" value="" style="endArrow=none;html=1;rounded=0;" parent="1" edge="1">
          <mxGeometry width="50" height="50" relative="1" as="geometry">
            <mxPoint x="1260" y="340" as="sourcePoint" />
            <mxPoint x="1557.92" y="400" as="targetPoint" />
          </mxGeometry>
        </mxCell>
        <mxCell id="PSzE1qa0EJoJ_1Spib9P-10" value="" style="endArrow=classic;html=1;rounded=0;" parent="1" edge="1">
          <mxGeometry width="50" height="50" relative="1" as="geometry">
            <mxPoint x="1345" y="330" as="sourcePoint" />
            <mxPoint x="1515" y="365" as="targetPoint" />
          </mxGeometry>
        </mxCell>
        <mxCell id="PSzE1qa0EJoJ_1Spib9P-11" value="&lt;font style=&quot;font-size: 20px;&quot;&gt;Администратор&lt;/font&gt;" style="shape=umlActor;verticalLabelPosition=bottom;verticalAlign=top;html=1;outlineConnect=0;" parent="1" vertex="1">
          <mxGeometry x="1560" y="380" width="80" height="150" as="geometry" />
        </mxCell>
        <mxCell id="PSzE1qa0EJoJ_1Spib9P-12" value="" style="endArrow=none;html=1;rounded=0;exitX=1;exitY=0.5;exitDx=0;exitDy=0;" parent="1" source="PSzE1qa0EJoJ_1Spib9P-15" edge="1">
          <mxGeometry width="50" height="50" relative="1" as="geometry">
            <mxPoint x="1480" y="730" as="sourcePoint" />
            <mxPoint x="1600" y="570" as="targetPoint" />
          </mxGeometry>
        </mxCell>
        <mxCell id="PSzE1qa0EJoJ_1Spib9P-13" value="" style="endArrow=classic;html=1;rounded=0;" parent="1" edge="1">
          <mxGeometry width="50" height="50" relative="1" as="geometry">
            <mxPoint x="1610" y="600" as="sourcePoint" />
            <mxPoint x="1290" y="760" as="targetPoint" />
          </mxGeometry>
        </mxCell>
        <mxCell id="PSzE1qa0EJoJ_1Spib9P-14" value="&lt;font style=&quot;font-size: 20px;&quot;&gt;3: Отправка ответа &lt;br&gt;на почту&lt;/font&gt;" style="text;html=1;align=center;verticalAlign=middle;resizable=0;points=[];autosize=1;strokeColor=none;fillColor=none;" parent="1" vertex="1">
          <mxGeometry x="1440" y="705" width="200" height="60" as="geometry" />
        </mxCell>
        <mxCell id="PSzE1qa0EJoJ_1Spib9P-15" value="&lt;font style=&quot;font-size: 18px;&quot;&gt;Сообщение&lt;/font&gt;" style="rounded=0;whiteSpace=wrap;html=1;" parent="1" vertex="1">
          <mxGeometry x="1100" y="690" width="160" height="90" as="geometry" />
        </mxCell>
        <mxCell id="PSzE1qa0EJoJ_1Spib9P-16" value="" style="endArrow=none;html=1;rounded=0;entryX=0;entryY=0.5;entryDx=0;entryDy=0;" parent="1" target="PSzE1qa0EJoJ_1Spib9P-15" edge="1">
          <mxGeometry width="50" height="50" relative="1" as="geometry">
            <mxPoint x="720" y="620" as="sourcePoint" />
            <mxPoint x="1080" y="525" as="targetPoint" />
          </mxGeometry>
        </mxCell>
        <mxCell id="PSzE1qa0EJoJ_1Spib9P-17" value="&lt;span style=&quot;font-size: 20px;&quot;&gt;4: Получение ответа&amp;nbsp;&lt;/span&gt;" style="text;html=1;align=center;verticalAlign=middle;resizable=0;points=[];autosize=1;strokeColor=none;fillColor=none;" parent="1" vertex="1">
          <mxGeometry x="750" y="700" width="220" height="40" as="geometry" />
        </mxCell>
      </root>
    </mxGraphModel>
  </diagram>
</mxfile>
